<?xml version="1.0" encoding="iso-8859-1"?>
<!-- Uploaded to: SVG Repo, www.svgrepo.com, Generator: SVG Repo Mixer Tools -->
<svg height="800px" width="800px" version="1.1" id="Layer_1" xmlns="http://www.w3.org/2000/svg" xmlns:xlink="http://www.w3.org/1999/xlink" 
	 viewBox="0 0 508 508" xml:space="preserve">
<circle style="fill:#90DFAA;" cx="254" cy="254" r="254"/>
<path style="fill:#324A5E;" d="M319.2,141.6h-21.6V116h-87.2v25.6h-21.6v-28.4c0-10.4,8.4-18.8,18.8-18.8h92.8
	c10.4,0,18.8,8.4,18.8,18.8C319.2,113.2,319.2,141.6,319.2,141.6z"/>
<path style="fill:#FF7058;" d="M93.6,160.8v210.4c0,6,4.8,10.8,10.8,10.8h299.2c6,0,10.8-4.8,10.8-10.8V160.8H93.6z"/>
<path style="fill:#FFFFFF;" d="M403.6,137.2H104.4c-6,0-10.8,4.8-10.8,10.8v99.2c0,8.8,7.2,16,16,16h288.8c8.8,0,16-7.2,16-16V148
	C414.4,142,409.6,137.2,403.6,137.2z"/>
<path style="fill:#4CDBC4;" d="M255.2,350h-2.4c-7.6,0-13.6-6-13.6-13.6V137.2h29.6V336C268.8,343.6,262.8,350,255.2,350z"/>
<g>
	<polygon style="fill:#2B3B4E;" points="276.4,314.4 276.4,276.8 268.8,276.8 268.8,306.4 239.2,306.4 239.2,276.8 231.6,276.8 
		231.6,314.4 	"/>
	<circle style="fill:#2B3B4E;" cx="254" cy="284.8" r="4.4"/>
</g>
<g>
	<circle style="fill:#324A5E;" cx="254" cy="254" r="4.4"/>
	<path style="fill:#324A5E;" d="M254.4,313.6L254.4,313.6c-2,0-3.2-1.2-3.2-2.8v-24c0-1.6,1.2-2.8,2.8-2.8h0.4
		c1.6,0,2.8,1.2,2.8,2.8v24C257.2,312,256,313.6,254.4,313.6z"/>
</g>
</svg>